<svg xmlns="http://www.w3.org/2000/svg" viewBox="0 0 58 58"><path d="M39.774 53.5H18.226c-.224 0-.311-.307-.124-.437l1.805-1.273c1.947-1.373 2.868-3.891 2.3-6.29h13.588v.002c-.568 2.4.354 4.917 2.302 6.29l1.803 1.271c.185.131.097.437-.126.437z" fill="#afb6bb"/><path d="M54.502 45.5H3.498A3.498 3.498 0 0 1 0 42.002V4.998A3.498 3.498 0 0 1 3.498 1.5h51.003A3.498 3.498 0 0 1 58 4.998v37.003a3.498 3.498 0 0 1-3.498 3.499z" fill="#e7eced"/><path d="M58 36.5H0V4.998A3.498 3.498 0 0 1 3.498 1.5h51.003A3.498 3.498 0 0 1 58 4.998V36.5z" fill="#38454f"/><g fill="#839caa"><path d="M4 10.5a.997.997 0 0 0 .707-.293l4-4a.999.999 0 1 0-1.414-1.414l-4 4A.999.999 0 0 0 4 10.5zM4 15.5a.997.997 0 0 0 .707-.293l2-2a.999.999 0 1 0-1.414-1.414l-2 2A.999.999 0 0 0 4 15.5zM7.29 9.79c-.181.19-.29.45-.29.71 0 .26.109.52.29.71.189.18.439.29.71.29.26 0 .52-.11.71-.29.18-.19.29-.45.29-.71 0-.26-.11-.52-.29-.71-.38-.37-1.04-.37-1.42 0zM9.293 9.207a.997.997 0 0 0 1.414 0l3-3a.999.999 0 1 0-1.414-1.414l-3 3a.999.999 0 0 0 0 1.414zM12.293 9.793l-9 9a.999.999 0 1 0 1.414 1.414l9-9a.999.999 0 1 0-1.414-1.414zM14.29 7.79c-.181.19-.29.44-.29.71s.109.52.29.71c.189.18.439.29.71.29.27 0 .52-.11.71-.29.18-.19.29-.44.29-.71s-.11-.52-.29-.71c-.37-.37-1.05-.37-1.42 0zM18.707 4.793a.999.999 0 0 0-1.414 0l-1 1a.999.999 0 1 0 1.414 1.414l1-1a.999.999 0 0 0 0-1.414z"/></g><path d="M40.5 56.5h-23c-.825 0-1.5-.675-1.5-1.5s.675-1.5 1.5-1.5h23c.825 0 1.5.675 1.5 1.5s-.675 1.5-1.5 1.5z" fill="#e7eced"/></svg>