<svg xmlns="http://www.w3.org/2000/svg" xmlns:v="http://schemas.microsoft.com/visio/2003/SVGExtensions/" width="49.808" height="44.163" viewBox="0 0 37.356 33.122" color-interpolation-filters="sRGB" fill="none" fill-rule="evenodd" font-size="12" overflow="visible" stroke-linecap="square" stroke-miterlimit="3"><v:documentProperties v:langID="1049" v:metric="true" v:viewMarkup="false"/><g v:mID="0" v:index="1" v:groupContext="foregroundPage"><v:pageProperties v:drawingScale=".039" v:pageScale=".039" v:drawingUnits="24" v:shadowOffsetX="8.504" v:shadowOffsetY="-8.504"/><g transform="translate(.375 -.375)" v:mID="6" v:groupContext="group"><g v:mID="7" v:groupContext="shape"><path d="M12.71.75c3.66-.28 6.97.97 10.41 2.33 2.67 1.06 5.41 2.18 7.56 3.56 1.56 1 2.81 2.13 3.82 3.28.61.71 1.14 1.42 1.52 2.4.42 1.08.66 2.49.59 3.79-.31 5.24-5.73 8.72-10.93 11.6-4.53 2.5-8.88 4.55-13.23 5.22-1.84.29-3.68.33-5.47-.2-1.97-.58-3.87-1.84-5.11-3.62-.58-.84-1.01-1.79-1.31-2.83C-.55 22.39.2 17.2.94 14.17c.41-1.67.82-2.69 1.52-4.16.69-1.45 1.66-3.35 2.94-4.94 1.14-1.41 2.53-2.59 3.84-3.3 1.13-.61 2.21-.88 3.47-1.02z" fill="#466fb1"/></g><g v:mID="8" v:groupContext="shape" transform="translate(5.355 -9.779)"><v:textBlock v:margins="rect(4,4,4,4)" v:tabSpace="42.52"/><v:textRect cx="12.226" cy="28.16" width="24.46" height="9.923"/><path d="M0 23.199h24.451v9.923H0z"/><text x="5.75" y="32.36" v:langID="1033" fill="#fff" font-family="Open Sans" font-size="1.167em"><v:paragraph v:horizAlign="1"/><v:tabList/>W</text></g></g></g></svg>